<svg width="108" height="108" viewBox="0 0 108 108" fill="none" xmlns="http://www.w3.org/2000/svg">
<rect width="108" height="108" rx="24" fill="#CAF3E5"/>
<path d="M54 20.0894C37.566 20.0894 24.1958 33.4596 24.1958 49.8937C24.1958 51.7149 24.1958 65.8035 24.1958 66.0542C24.1958 69.341 26.8698 72.015 30.1566 72.015H32.4854C33.3056 74.3276 35.5141 75.9889 38.1044 75.9889C41.3913 75.9889 44.0653 73.3149 44.0653 70.0281V53.8675C44.0653 50.5807 41.3913 47.9067 38.1044 47.9067C35.5141 47.9067 33.3056 49.5681 32.4854 51.8806H30.1566C29.46 51.8806 28.7916 52.0018 28.1697 52.2224V49.8937C28.1697 35.6508 39.7572 24.0633 54 24.0633C68.2429 24.0633 79.8304 35.6508 79.8304 49.8937V52.2224C79.2085 52.0018 78.54 51.8806 77.8434 51.8806H75.5147C74.6945 49.5681 72.4859 47.9067 69.8956 47.9067C66.6088 47.9067 63.9348 50.5807 63.9348 53.8675V70.0281C63.9348 73.3149 66.6088 75.9889 69.8956 75.9889C70.4971 75.9889 71.0779 75.8986 71.6257 75.7321C70.8825 78.1776 68.607 79.9628 65.9217 79.9628H59.6191C58.7989 77.6503 56.5904 75.9889 54 75.9889C50.7132 75.9889 48.0392 78.6629 48.0392 81.9498C48.0392 85.2366 50.7132 87.9106 54 87.9106C56.5904 87.9106 58.7989 86.2493 59.6191 83.9367H65.9217C71.3997 83.9367 75.8565 79.48 75.8565 74.002V72.015H77.8434C81.1302 72.015 83.8043 69.341 83.8043 66.0542C83.8043 65.8073 83.8043 51.7134 83.8043 49.8937C83.8043 33.4596 70.4341 20.0894 54 20.0894ZM36.1175 53.8675C36.1175 52.7719 37.0088 51.8806 38.1044 51.8806C39.2 51.8806 40.0914 52.7719 40.0914 53.8675V70.0281C40.0914 71.1237 39.2 72.015 38.1044 72.015C37.0088 72.015 36.1175 71.1237 36.1175 70.0281V53.8675ZM30.1566 55.8545H32.1436V68.0411H30.1566C29.061 68.0411 28.1697 67.1498 28.1697 66.0542V57.8414C28.1697 56.7458 29.061 55.8545 30.1566 55.8545ZM54 83.9367C52.9044 83.9367 52.0131 83.0454 52.0131 81.9498C52.0131 80.8542 52.9044 79.9628 54 79.9628C55.0956 79.9628 55.987 80.8542 55.987 81.9498C55.987 83.0454 55.0956 83.9367 54 83.9367ZM71.8826 70.0281C71.8826 71.1237 70.9912 72.015 69.8956 72.015C68.8 72.015 67.9087 71.1237 67.9087 70.0281V53.8675C67.9087 52.7719 68.8 51.8806 69.8956 51.8806C70.9912 51.8806 71.8826 52.7719 71.8826 53.8675V70.0281ZM79.8304 66.0542C79.8304 67.1498 78.939 68.0411 77.8434 68.0411H75.8565V55.8545H77.8434C78.939 55.8545 79.8304 56.7458 79.8304 57.8414V66.0542Z" fill="#70908B"/>
</svg>
