<svg width="108" height="108" viewBox="0 0 108 108" fill="none" xmlns="http://www.w3.org/2000/svg">
<rect width="108" height="108" rx="24" fill="#EEEBFF"/>
<g clip-path="url(#clip0_2001_90)">
<path d="M42.9168 72.0495C42.8995 71.9645 42.8743 71.8808 42.8411 71.7998C42.8079 71.7201 42.7667 71.6431 42.7189 71.5714C42.6711 71.4983 42.6153 71.4306 42.5542 71.3695C42.4931 71.3084 42.4254 71.2526 42.3523 71.2048C42.2806 71.157 42.2036 71.1158 42.1226 71.0826C42.0429 71.0494 41.9592 71.0229 41.8742 71.0069C41.7029 70.9724 41.5263 70.9724 41.3563 71.0069C41.2713 71.0229 41.1876 71.0494 41.1066 71.0826C41.0269 71.1158 40.9498 71.157 40.8781 71.2048C40.8051 71.2526 40.7373 71.3084 40.6762 71.3695C40.6152 71.4306 40.5594 71.4983 40.5116 71.5714C40.4624 71.6431 40.4226 71.7201 40.3894 71.7998C40.3562 71.8808 40.3296 71.9645 40.3137 72.0495C40.2964 72.1345 40.2871 72.2222 40.2871 72.3085C40.2871 72.3948 40.2964 72.4825 40.3137 72.5675C40.3296 72.6525 40.3562 72.7361 40.3894 72.8158C40.4226 72.8968 40.4624 72.9739 40.5116 73.0456C40.5594 73.1186 40.6152 73.1864 40.6762 73.2475C40.7373 73.3086 40.8051 73.3643 40.8781 73.4122C40.9498 73.4601 41.0269 73.5013 41.1066 73.5345C41.1876 73.5677 41.2713 73.5942 41.3563 73.6102C41.4413 73.6274 41.5289 73.6367 41.6152 73.6367C41.7016 73.6367 41.7892 73.6274 41.8742 73.6102C41.9592 73.5942 42.0429 73.5677 42.1226 73.5345C42.2036 73.5013 42.2806 73.46 42.3523 73.4122C42.4254 73.3643 42.4931 73.3086 42.5542 73.2475C42.6153 73.1864 42.6711 73.1186 42.7189 73.0456C42.7667 72.9739 42.8079 72.8968 42.8411 72.8158C42.8743 72.7361 42.8995 72.6525 42.9168 72.5675C42.9341 72.4825 42.9434 72.3948 42.9434 72.3085C42.9434 72.2222 42.9341 72.1345 42.9168 72.0495Z" fill="#70908B"/>
<path d="M81.0928 72.4585C81.0876 72.4452 81.0823 72.4321 81.0768 72.4191C79.8543 69.5587 76.9875 68.5015 73.5946 69.6603L64.3418 72.2191C63.8069 70.599 62.4725 69.2204 60.5858 68.5202C60.5741 68.516 60.5624 68.5117 60.5506 68.5078L50.3797 65.0557C49.5331 63.9615 46.8814 61.1615 41.9165 61.1615C38.4467 61.1615 35.3773 63.5418 33.6213 66.1363H21.3281C20.5946 66.1363 20 66.7309 20 67.4644V84.209C20 84.9425 20.5946 85.5371 21.3281 85.5371H29.2248C29.9583 85.5371 30.5529 84.9425 30.5529 84.209V83.0623H34.2561C34.9896 83.0623 35.5842 82.4677 35.5842 81.7341V81.3519C37.743 81.5402 38.453 81.9497 40.4356 83.0929C41.9603 83.9722 44.2647 85.301 48.4146 87.1668C48.4338 87.1755 48.4534 87.1837 48.4729 87.1914C49.2694 87.5047 50.8263 87.9969 52.7459 87.9969C54.0819 87.9969 55.594 87.7582 57.1461 87.0547L77.598 79.732C77.6344 79.719 77.6702 79.7044 77.7053 79.6882C79.6599 78.7889 82.5726 76.2544 81.0928 72.4585ZM27.8966 82.8807H22.6562V68.7924H27.8966V82.8807ZM32.928 80.4059H30.5529V68.7924H32.928V80.4059ZM76.644 77.252L56.2012 84.5714C56.1833 84.5778 56.159 84.5874 56.1413 84.5945C56.1234 84.6018 56.1055 84.6095 56.0878 84.6176C53.2407 85.9261 50.5344 85.1428 49.4737 84.7304C45.4652 82.9267 43.3257 81.693 41.7625 80.7916C39.5892 79.5384 38.542 78.9343 35.5842 78.6901V67.9931C36.8431 65.9297 39.2845 63.8176 41.9166 63.8176C46.4304 63.8176 48.343 66.7534 48.4182 66.8719C48.5803 67.1357 48.8296 67.3345 49.1227 67.434L59.678 71.0164C61.3638 71.6492 62.2547 73.0928 61.8452 74.5325C61.6562 75.1974 61.2196 75.7488 60.6158 76.0852C60.0172 76.4187 59.3253 76.5012 58.6657 76.3187L46.7666 72.5479C46.067 72.3262 45.3208 72.7135 45.0993 73.4128C44.8776 74.112 45.2649 74.8584 45.9642 75.0801L57.884 78.8574C57.8966 78.8614 57.9092 78.8653 57.922 78.8688C58.3978 79.0042 58.8823 79.0711 59.3639 79.0711C60.2455 79.0711 61.1174 78.8465 61.9087 78.4056C63.1323 77.7239 64.0171 76.6064 64.4002 75.259C64.4307 75.1514 64.4578 75.0438 64.4813 74.9363L74.4533 72.1738C75.8935 71.6818 77.7841 71.5045 78.6258 73.4432C79.4971 75.7192 77.2326 76.9712 76.644 77.252Z" fill="#70908B"/>
<path d="M67.6877 37.4706C67.6704 37.3856 67.6452 37.3019 67.6106 37.2209C67.5774 37.1412 67.5376 37.0642 67.4884 36.9925C67.4406 36.9194 67.3848 36.8517 67.3238 36.7906C67.2627 36.7295 67.1949 36.6737 67.1219 36.6259C67.0502 36.5781 66.9731 36.5369 66.8934 36.5037C66.8124 36.4705 66.7287 36.4439 66.6451 36.428C66.4737 36.3935 66.2971 36.3935 66.1258 36.428C66.0408 36.4439 65.9571 36.4705 65.8774 36.5037C65.7964 36.5369 65.7194 36.5781 65.6477 36.6259C65.5746 36.6737 65.5069 36.7295 65.4458 36.7906C65.3847 36.8517 65.3289 36.9194 65.2811 36.9925C65.2333 37.0642 65.1921 37.1412 65.1589 37.2209C65.1257 37.3019 65.0991 37.3856 65.0832 37.4706C65.0659 37.5556 65.0566 37.6432 65.0566 37.7296C65.0566 37.8159 65.0659 37.9035 65.0832 37.9885C65.0991 38.0735 65.1257 38.1572 65.1589 38.2369C65.1921 38.3179 65.2333 38.395 65.2811 38.4667C65.3289 38.5397 65.3847 38.6075 65.4458 38.6685C65.5069 38.7296 65.5746 38.7854 65.6477 38.8332C65.7194 38.881 65.7964 38.9222 65.8774 38.9554C65.9571 38.9886 66.0408 39.0139 66.1258 39.0311C66.2108 39.0484 66.2984 39.0577 66.3848 39.0577C66.4711 39.0577 66.5587 39.0484 66.6451 39.0311C66.7287 39.0139 66.8124 38.9886 66.8934 38.9554C66.9731 38.9222 67.0502 38.881 67.1219 38.8332C67.1949 38.7854 67.2627 38.7296 67.3238 38.6685C67.3848 38.6075 67.4406 38.5397 67.4884 38.4667C67.5376 38.395 67.5774 38.3179 67.6106 38.2369C67.6452 38.1572 67.6704 38.0735 67.6877 37.9885C67.7049 37.9035 67.7129 37.8159 67.7129 37.7296C67.7129 37.6432 67.7049 37.5556 67.6877 37.4706Z" fill="#70908B"/>
<path d="M86.6719 24.5011H78.7752C78.0417 24.5011 77.4471 25.0957 77.4471 25.8292V26.9759H73.7439C73.0104 26.9759 72.4158 27.5705 72.4158 28.3041V28.6863C70.257 28.4978 69.547 28.0885 67.5645 26.9453C66.0398 26.066 63.7354 24.7373 59.5854 22.8714C59.5662 22.8626 59.5468 22.8545 59.527 22.8468C58.1762 22.3153 54.6358 21.2695 50.8545 22.9832L45.5101 24.8968L41.0052 20.392C40.4866 19.8734 39.6456 19.8734 39.127 20.392L24.3373 35.1816C23.8589 35.6601 23.7671 36.4898 24.3373 37.06L49.6097 62.3325C50.0142 62.737 50.9611 62.8594 51.4881 62.3325L64.9905 48.8302C65.3415 48.8605 65.7058 48.8769 66.0834 48.8769C69.5533 48.8769 72.6226 46.4966 74.3785 43.9022H86.6719C87.4054 43.9022 88 43.3076 88 42.5741V25.8292C88 25.0957 87.4054 24.5011 86.6719 24.5011ZM40.066 23.2094L43.093 26.2364C42.1932 26.7929 41.1529 27.0907 40.066 27.0907C38.9789 27.0907 37.9387 26.7931 37.0389 26.2364L40.066 23.2094ZM30.1818 39.1479L27.1547 36.1207L30.1818 33.0937C30.7383 33.9935 31.0361 35.0338 31.0361 36.1207C31.0361 37.2077 30.7384 38.248 30.1818 39.1479ZM50.549 59.515L47.5225 56.4885C49.3703 55.3481 51.7274 55.3481 53.5754 56.4885L50.549 59.515ZM55.489 54.5752C52.5541 52.4462 48.5439 52.4462 45.609 54.5752L32.0952 41.0612C33.1324 39.6348 33.6923 37.9214 33.6923 36.1207C33.6923 34.3199 33.1325 32.6067 32.0952 31.1803L35.1256 28.15C36.552 29.1871 38.2653 29.7471 40.0661 29.7471C41.8669 29.7471 43.5802 29.1871 45.0066 28.15L47.8792 31.0226C47.2594 31.1141 46.6549 31.3184 46.0913 31.6325C45.1393 32.1629 44.3923 32.9573 43.9272 33.9183C42.4291 34.1958 41.0421 34.921 39.9541 36.0089C37.0024 38.9608 37.0024 43.7637 39.9543 46.7156C41.4301 48.1914 43.3688 48.9294 45.3076 48.9294C47.2462 48.9294 49.185 48.1915 50.661 46.7156C51.6212 45.7554 52.2939 44.5752 52.6308 43.289L57.1151 44.8109C56.6103 47.1495 57.1273 49.6097 58.522 51.5421L55.489 54.5752ZM47.4142 41.518C47.4259 41.5222 47.4376 41.5265 47.4494 41.5305L50.1051 42.4319C49.9046 43.337 49.4508 44.1692 48.7827 44.8374C46.8665 46.7533 43.7486 46.7536 41.8326 44.8374C39.9164 42.9213 39.9164 39.8035 41.8326 37.8873C42.2948 37.4248 42.8403 37.0634 43.4346 36.8184C43.6798 38.8587 45.1488 40.6773 47.4142 41.518ZM60.4357 49.6283C59.923 48.7929 59.633 47.8395 59.5872 46.8663C60.2233 47.3263 61.0008 47.7769 61.9294 48.1346L60.4357 49.6283ZM72.4156 42.0446C71.1568 44.1082 68.7155 46.2203 66.0834 46.2203C65.5909 46.2203 65.1294 46.1853 64.6979 46.1229C64.6962 46.1226 64.6945 46.1223 64.6927 46.1221C61.8245 45.7054 60.2816 44.0753 59.7731 43.4298C59.746 43.39 59.6306 43.239 59.6134 43.2139C59.4587 42.9373 59.2051 42.715 58.8815 42.6052L48.3219 39.0212C46.6367 38.3888 45.746 36.9458 46.1542 35.5066C46.1545 35.5057 46.1548 35.5048 46.155 35.5038C46.1554 35.5028 46.1557 35.5016 46.156 35.5005C46.3457 34.8378 46.7816 34.2881 47.3841 33.9524C47.9825 33.619 48.6743 33.5362 49.3342 33.7191L61.2332 37.4898C61.9326 37.7117 62.679 37.3242 62.9006 36.6249C63.1221 35.9256 62.7349 35.1792 62.0357 34.9576L52.5721 31.9587L52.4895 31.8761C52.4887 31.8753 52.4879 31.8743 52.487 31.8735L47.5875 26.9741L51.7988 25.4661C51.813 25.4609 51.8305 25.4544 51.8446 25.4487C51.8482 25.4473 51.8551 25.4446 51.8585 25.4432C51.8766 25.4358 51.8944 25.4281 51.9121 25.42C54.759 24.1116 57.4652 24.8948 58.526 25.3073C62.5347 27.111 64.6743 28.3447 66.2375 29.2461C68.4108 30.4995 69.458 31.1034 72.4156 31.3476V42.0446ZM77.4471 41.2457H75.072V29.6322H77.4471V41.2457ZM85.3437 41.2457H80.1034V27.1574H85.3437V41.2457Z" fill="#70908B"/>
</g>
<defs>
<clipPath id="clip0_2001_90">
<rect width="68" height="68" fill="white" transform="translate(20 20)"/>
</clipPath>
</defs>
</svg>
