<svg width="108" height="108" viewBox="0 0 108 108" fill="none" xmlns="http://www.w3.org/2000/svg">
<rect width="107.689" height="107.689" rx="24" fill="#FFF4E7"/>
<path d="M87.0029 34.6389L60.6404 20.1631C60.2443 19.9456 59.7641 19.9456 59.368 20.1631L49.4315 25.6191C49.2218 25.6743 49.0261 25.7797 48.8639 25.931L33.0061 34.6389C32.5831 34.8708 32.3203 35.3149 32.3203 35.7978V53.3056C29.6452 54.1422 27.1937 55.6176 25.1554 57.6565C19.8424 62.9689 18.4878 71.0716 21.7847 77.8187C22.1049 78.4746 22.8966 78.7467 23.5524 78.426C24.2088 78.1053 24.4804 77.3137 24.1602 76.6578C21.3592 70.925 22.5103 64.0405 27.0249 59.5259C29.8481 56.7027 33.6015 55.1477 37.594 55.1477C41.5865 55.1477 45.3398 56.7027 48.1631 59.5259C50.9859 62.3487 52.5409 66.1021 52.5409 70.0946C52.5409 74.087 50.9859 77.8404 48.1626 80.6637C43.648 85.1783 36.7636 86.3294 31.0308 83.5283C30.3749 83.2076 29.5832 83.4798 29.263 84.1356C28.9423 84.792 29.214 85.5837 29.8704 85.9039C32.328 87.1051 34.9649 87.6886 37.5826 87.6886C42.1494 87.6881 46.6552 85.9106 50.0326 82.5332C51.5813 80.9844 52.8053 79.1976 53.6713 77.2553L59.368 80.3833C59.5663 80.4923 59.7852 80.5465 60.0042 80.5465C60.2232 80.5465 60.4427 80.4923 60.6404 80.3833L87.0029 65.9079C87.4258 65.6755 87.6887 65.2314 87.6887 64.7491V55.5614C87.6887 54.8311 87.0968 54.2393 86.3666 54.2393C85.6364 54.2393 85.0446 54.8311 85.0446 55.5614V63.9667L61.3304 76.9883V51.0535L69.1568 46.7558V53.5685C69.1568 54.0364 69.4036 54.4691 69.8059 54.7067C70.0135 54.8291 70.2459 54.8905 70.4788 54.8905C70.6978 54.8905 70.9173 54.8363 71.1161 54.7268L76.7653 51.6174C77.1877 51.385 77.4495 50.9414 77.4495 50.4596V42.202L85.0446 38.0319V44.9855C85.0446 45.7157 85.6364 46.3076 86.3666 46.3076C87.0968 46.3076 87.6887 45.7157 87.6887 44.9855V35.7978C87.6887 35.3155 87.4258 34.8708 87.0029 34.6389ZM60.0042 22.8299L83.6198 35.7978L76.1703 39.8884L52.5548 26.9205L60.0042 22.8299ZM60.0042 48.7652L36.3887 35.7978L44.1113 31.5569L67.7273 44.5243L60.0042 48.7652ZM70.4737 43.0164L46.8581 30.049L49.8079 28.4289L73.424 41.3964L70.4737 43.0164ZM50.0326 57.6565C46.7099 54.3338 42.2924 52.5041 37.594 52.5041C36.7052 52.5041 35.8273 52.5697 34.9644 52.6983V38.0319L58.6868 51.0581V76.993L54.5694 74.7321C54.9748 73.2396 55.1844 71.6831 55.1844 70.0946C55.1844 65.3961 53.3547 60.9786 50.0326 57.6565ZM74.806 49.6783L71.8009 51.3324V45.3041L74.806 43.6542V49.6783Z" fill="#70908B"/>
<path d="M86.3667 48.9449C86.0191 48.9449 85.6778 49.0864 85.4319 49.3322C85.1861 49.578 85.0446 49.9189 85.0446 50.2669C85.0446 50.6145 85.1861 50.9553 85.4319 51.2011C85.6778 51.4475 86.0191 51.5885 86.3667 51.5885C86.7142 51.5885 87.0556 51.4475 87.3014 51.2011C87.5472 50.9553 87.6887 50.6145 87.6887 50.2669C87.6887 49.9189 87.5472 49.578 87.3014 49.3322C87.0556 49.0864 86.7142 48.9449 86.3667 48.9449Z" fill="#70908B"/>
<path d="M33.1486 71.4166C33.4869 71.4166 33.8257 71.2875 34.0833 71.0298C34.5998 70.5134 34.5998 69.6763 34.0833 69.1598L33.1677 68.2437H40.9812C42.8765 68.2437 44.4185 69.7858 44.4185 71.681C44.4185 73.5763 42.8765 75.1183 40.9812 75.1183H36.3515C35.6213 75.1183 35.0294 75.7102 35.0294 76.4404C35.0294 77.1701 35.6213 77.7619 36.3515 77.7619H40.9812C44.3344 77.7619 47.0626 75.0342 47.0626 71.681C47.0626 68.3279 44.3344 65.6001 40.9812 65.6001H33.1677L34.0833 64.684C34.5998 64.1676 34.5998 63.3304 34.0833 62.814C33.5674 62.2981 32.7303 62.2981 32.2139 62.814L29.041 65.9869C28.5251 66.5034 28.5251 67.3405 29.041 67.8569L32.2139 71.0293C32.4721 71.2875 32.8104 71.4166 33.1486 71.4166Z" fill="#70908B"/>
<path d="M26.0911 82.9224C25.7152 82.9224 25.3418 82.7623 25.081 82.4519L25.0784 82.4488C24.6085 81.89 24.6808 81.0565 25.2395 80.5866C25.7983 80.1161 26.6323 80.1884 27.1023 80.7472C27.5717 81.3065 27.501 82.1415 26.9422 82.6115C26.6938 82.8201 26.3917 82.9224 26.0911 82.9224Z" fill="#70908B"/>
</svg>
